<svg xmlns="http://www.w3.org/2000/svg" viewBox="540 386 852 308">
  <defs>
    <style>
      .st0 { fill: #36a9e1; }
      .st1 { fill: #f3f3f3; }
    </style>
  </defs>
  <g>
    <path class="st1" d="M550.04,441.14h46.73v155.76h41.34v41.94h-88.07v-197.7Z"/>
    <path class="st1" d="M645.97,441.14h99.15v41.94h-52.42v37.74h43.73v37.74h-43.73v38.34h52.42v41.94h-99.15v-197.7Z"/>
    <path class="st1" d="M782.04,483.08h-29.06v-41.94h105.44v41.94h-29.36v155.76h-47.03v-155.76Z"/>
    <path class="st1" d="M867.96,585.22v-13.78h47.03v20.97c0,8.39,6.89,13.48,14.08,13.48,8.69,0,13.18-4.79,13.18-13.48v-15.58c0-10.78-5.99-16.77-17.97-17.67-33.55-2.1-59.61-17.67-59.61-52.72v-11.68c0-34.15,25.76-56.61,60.81-56.61s60.81,23.36,60.81,56.61v14.68h-47.03v-21.57c0-8.69-6.59-13.78-13.78-13.78-8.09,0-13.48,5.09-13.48,13.78v14.38c0,13.48,7.49,18.27,23.06,19.17,31.45,1.2,54.52,16.47,54.52,49.12v14.98c0,33.25-25.76,56.31-62.3,56.31s-59.31-23.96-59.31-56.61Z"/>
  </g>
  <g>
    <path class="st1" d="M1114.01,444.31h28.48c42.27,0,42.76,30.3,42.76,55.56v78.17c0,29.63-4.05,58.49-45.3,58.49h-25.95v-192.22ZM1125.07,626.41h13.72c27.17,0,35.12-13.79,35.12-44.34v-84.78c0-26.85-4.85-42.86-34.55-42.86h-14.28v171.98Z"/>
    <path class="st1" d="M1279.65,487.64v104.14c0,30.64-12.16,47.06-36.8,47.06-28.27,0-35.89-20.09-35.89-47.05v-103.87c0-28.39,11.1-45.92,36.78-45.92,27.66,0,35.91,22.04,35.91,45.65ZM1218.32,488.7v102.88c0,27.37,9.98,37.11,25.13,37.11s24.85-9.72,24.85-38.52v-101.19c0-25.67-9.39-36.83-25.14-36.83-17.12,0-24.85,10.86-24.85,36.55Z"/>
    <path class="st1" d="M1369.96,583.76v5.51c0,26.94-5.15,49.57-33.9,49.57-30.89,0-34.72-24.97-34.72-52.07v-98.66c0-31.89,12.96-46.11,34.73-46.11,28.37,0,33.02,21.91,33.02,45.58v6.38h-11.62v-5.89c0-17.73-1.75-35.9-21.96-35.9-18.8,0-22.81,15.92-22.81,36.75v97.92c0,26.17,5.96,41.87,23.66,41.87,19.38,0,21.97-17.64,21.97-39.63v-5.3h11.63Z"/>
  </g>
  <g>
    <path class="st0" d="M1077.21,655.72c0-14.36-11.76-26.96-27.86-26.95-15.23,0-27.84,13.07-27.82,26.99,0,14.38,12.64,27.86,27.86,27.85,15.23-.01,27.83-12.64,27.82-27.89Z"/>
    <path class="st0" d="M1073.27,619.18l-46.99.03-5.82-222.77,62.65-.05-2.38,53.77-.34,7.59c-.12,2.76-3.34,4.19-5.47,2.44-17.89-14.78-34.4-18.25-42.8-18.99-3.36-.13-3.76,4.2-.45,5.03,27.39,8.96,39.62,31.98,44.7,46.18,1.46,4.09,2.12,8.42,1.92,12.76l-5.04,113.99Z"/>
  </g>
</svg>
